<?xml version="1.0" encoding="utf-8"?>
<!-- Generator: Adobe Illustrator 17.1.0, SVG Export Plug-In . SVG Version: 6.00 Build 0)  -->
<!DOCTYPE svg PUBLIC "-//W3C//DTD SVG 1.1//EN" "http://www.w3.org/Graphics/SVG/1.1/DTD/svg11.dtd">
<svg version="1.1" id="_x3F__x3F__x3F__x3F__1" xmlns="http://www.w3.org/2000/svg" xmlns:xlink="http://www.w3.org/1999/xlink"
	 x="0px" y="0px" viewBox="0 314.3 595.3 213.2" enable-background="new 0 314.3 595.3 213.2" xml:space="preserve">
<g>
	<path fill="#FFFFFF" d="M72.7,397.2h-7l2.9,7.2L72.7,397.2L72.7,397.2z M61.7,397.2h-7l4.1,7.2L61.7,397.2L61.7,397.2z M77.7,384.6
		v6.1l20.8,3.3L77.7,384.6L77.7,384.6z M65.3,415.6l6.7,12.8h-2.9l-5.4-10.1L0,524.2l51.4-127.2l0.1-0.3v-7.7l-34.6-6l-0.9-1.9
		l35.5-3.6v-24.7l-34.6-6l-0.9-1.9l37-3.7l10.8-26.7l12.6,31.2l29,12.8l-0.9,1.9L76,356.5l0,25.1l29.3,13l-0.9,1.9L76,392.7v3.9
		l0.1,0.3l8.3,32.3c-1-0.2-2-0.4-3.1-0.5l-7.5-27.9l-3.9,6.8l8.3,20.9c-0.9,0-1.8-0.1-2.6-0.1H75l-7-17.6L65.3,415.6L65.3,415.6z
		 M74.2,392.4l-9.5-1.3l-11.1,4.1h20.6L74.2,392.4L74.2,392.4z M60.6,390.5l-7.4-1.3v4.1L60.6,390.5L60.6,390.5z M76.6,390.5l0-6.4
		l-12.3-5.6v10L76.6,390.5L76.6,390.5z M53.2,377.2l3.9-0.4l-3.9-1.5V377.2L53.2,377.2z M59.6,376.6l4.1-0.4l10.5,4.6v-14.6
		l-20.9,7.6v0.1L59.6,376.6L59.6,376.6z M63.1,378.3l-9.8,0.9l0,7.5l9.7,1.6L63.1,378.3L63.1,378.3z M51.4,379.5l-27.3,2.6l27.3,4.4
		V379.5L51.4,379.5z M74.2,356.3l-10.5-1.4l-3.4-0.6l13.8,6.6V356.3L74.2,356.3z M54.7,353.3l-1.4-0.2v18.6l20.9-7.6v-1L54.7,353.3
		L54.7,353.3z M50.8,350.6l1.6-7.4l-6.4,0.6v6L50.8,350.6L50.8,350.6z M54.8,343l-1.7,6.8l0.2,1.2l9.8,1.7v-10.4l0.6-0.2L54.8,343
		L54.8,343z M44.9,349.6v-5.7l-21.6,1.9L44.9,349.6L44.9,349.6z M64.3,342.5v10.4h-0.6l10.5,1.4l0-7.5L64.3,342.5L64.3,342.5z
		 M75.9,347.6l0,7l22.9,3.1L75.9,347.6L75.9,347.6z M55.5,340.8l8.2-0.8l9.7,4.3l-1.9-3.8l-14.1-4.9L55.5,340.8L55.5,340.8z
		 M60.7,407.6l3-7.6l3,7.6l-3,5.3L60.7,407.6L60.7,407.6z M13.1,499.3l49.1-83.6l-2.7-4.8L13.1,499.3L13.1,499.3z M12,498l41.6-97.1
		l3.9,6.8L12,498L12,498z M70.8,337.9l-7.1-19.6L58,333.5L70.8,337.9z"/>
	<polygon fill="#FFFFFF" points="94.7,365.9 104.5,367.1 104.5,368.5 94.7,367.3 	"/>
	<polygon fill="#FFFFFF" points="94.7,363.7 104.5,364.9 104.5,366.4 94.7,365.1 	"/>
	<polygon fill="#FFFFFF" points="94.7,361.5 104.5,362.8 104.5,364.2 94.7,363 	"/>
	<polygon fill="#FFFFFF" points="20.5,353.4 30.4,355.3 30.4,356.7 20.5,354.9 	"/>
	<polygon fill="#FFFFFF" points="20.5,351.3 30.4,353.1 30.4,354.6 20.5,352.7 	"/>
	<polygon fill="#FFFFFF" points="20.5,349.1 30.4,351 30.4,352.4 20.5,350.6 	"/>
	<polygon fill="#FFFFFF" points="20.6,390.1 30.4,391.8 30.4,393.3 20.6,391.6 	"/>
	<polygon fill="#FFFFFF" points="20.6,388 30.4,389.7 30.4,391.1 20.6,389.4 	"/>
	<polygon fill="#FFFFFF" points="20.6,385.8 30.4,387.5 30.4,388.9 20.6,387.2 	"/>
	<path fill="#FFFFFF" d="M60.7,431.2h14.9c4,0,7.2,0.3,9.3,1c2.2,0.7,3.8,1.7,4.9,2.9c1.1,1.3,1.8,2.9,2.2,4.7
		c0.4,1.8,0.6,4.7,0.6,8.5v5.3c0,3.9-0.4,6.8-1.1,8.5s-2.1,3.2-4.1,4.1c-2,1-4.6,1.4-7.9,1.4h-4v24.6H60.7L60.7,431.2L60.7,431.2z
		 M75.5,441.7v15.6c0.4,0,0.8,0,1.1,0c1.4,0,2.3-0.4,2.8-1.1c0.5-0.7,0.8-2.2,0.8-4.5v-5c0-2.1-0.3-3.5-0.9-4.1
		C78.7,442,77.4,441.7,75.5,441.7L75.5,441.7z M114.9,431.2v61.2h-14.8v-61.2H114.9L114.9,431.2z M124.1,431.2h14.8
		c4.7,0,8.2,0.4,10.6,1.2c2.4,0.8,4.4,2.4,5.8,4.7c1.5,2.4,2.2,6.2,2.2,11.5c0,3.6-0.5,6.1-1.6,7.5c-1.1,1.4-3.1,2.5-6.2,3.3
		c3.4,0.8,5.7,2.2,7,4.1c1.2,1.9,1.8,4.9,1.8,8.9v5.7c0,4.1-0.4,7.2-1.3,9.2c-0.9,2-2.3,3.3-4.2,4.1c-1.9,0.7-5.9,1.1-11.8,1.1
		h-17.1L124.1,431.2L124.1,431.2z M139,441.7v13.6c0.6,0,1.1,0,1.5,0c1.5,0,2.4-0.4,2.8-1.2c0.4-0.8,0.6-3,0.6-6.6
		c0-1.9-0.2-3.3-0.5-4c-0.3-0.8-0.8-1.3-1.3-1.5C141.5,441.8,140.5,441.7,139,441.7L139,441.7z M139,464.8v17.1c2.1-0.1,3.4-0.4,4-1
		c0.6-0.6,0.9-2.2,0.9-4.6v-5.7c0-2.6-0.3-4.2-0.8-4.8C142.5,465.2,141.2,464.9,139,464.8L139,464.8z M201.3,431.2v61.2h-14.8v-25.7
		H182v25.7h-14.8v-61.2H182v21.9h4.4v-21.9H201.3L201.3,431.2z M210.5,431.2h24.7v12.3h-9.9v11.6h9.3v11.7h-9.3v13.5h10.9v12.2
		h-25.7V431.2L210.5,431.2z M277.6,467c0,6.2-0.1,10.5-0.4,13.1c-0.3,2.6-1.1,4.9-2.5,7c-1.4,2.1-3.3,3.7-5.8,4.9
		c-2.4,1.1-5.3,1.7-8.5,1.7c-3.1,0-5.8-0.5-8.2-1.6c-2.4-1.1-4.4-2.7-5.9-4.8c-1.5-2.1-2.4-4.5-2.6-7c-0.3-2.5-0.4-6.9-0.4-13.2
		v-10.5c0-6.2,0.1-10.5,0.4-13.1c0.3-2.6,1.1-4.9,2.5-7c1.4-2.1,3.3-3.7,5.8-4.9c2.4-1.1,5.2-1.7,8.5-1.7c3.1,0,5.8,0.5,8.2,1.6
		c2.4,1.1,4.4,2.7,5.9,4.8c1.5,2.1,2.4,4.5,2.6,7c0.3,2.5,0.4,6.9,0.4,13.2L277.6,467L277.6,467z M262.8,447c0-2.9-0.1-4.7-0.4-5.5
		c-0.3-0.8-0.9-1.2-1.8-1.2c-0.8,0-1.4,0.3-1.8,1c-0.4,0.6-0.6,2.5-0.6,5.7v28.6c0,3.6,0.1,5.8,0.4,6.6c0.3,0.8,0.9,1.2,1.9,1.2
		c1,0,1.6-0.5,1.9-1.4c0.3-1,0.4-3.2,0.4-6.8L262.8,447L262.8,447z M320.9,478.1c0,4.6-0.6,7.8-1.7,9.8s-2.8,3.2-5,3.7
		c-2.2,0.5-5.8,0.8-10.7,0.8h-17.1v-61.2h29.1v10.6h-14.2v10.4h2.3c4.6,0,8.1,0.3,10.4,0.9c2.3,0.6,4.1,1.9,5.3,3.8
		c1.2,2,1.8,5.1,1.8,9.3L320.9,478.1L320.9,478.1z M306,476.2v-8.8c0-2.6-0.2-4.1-0.7-4.7c-0.5-0.6-1.9-0.9-4.1-0.9v20.1
		c1.9,0,3.2-0.3,3.8-0.8C305.7,480.6,306,479,306,476.2L306,476.2z M365.6,492.4h-14.9v-49h-4.3v34.7c0,4.5-0.5,7.8-1.6,9.8
		c-1.1,2-2.7,3.2-5,3.7c-2.2,0.5-5.8,0.8-10.7,0.8h-2.3v-10.5c1.8,0,3.1-0.2,3.7-0.7c0.7-0.5,1-2.1,1-4.9v-45.1h34.1L365.6,492.4
		L365.6,492.4z M374.8,431.2h24.7v12.3h-9.9v11.6h9.3v11.7h-9.3v13.5h10.9v12.2h-25.7V431.2L374.8,431.2z M442.1,431.2v61.2h-14.8
		v-25.7h-4.4v25.7H408v-61.2h14.8v21.9h4.4v-21.9H442.1L442.1,431.2z M451.3,431.2H476v12.3h-9.9v11.6h9.3v11.7h-9.3v13.5H477v12.2
		h-25.7V431.2L451.3,431.2z M484.5,431.2h14.9c4,0,7.2,0.3,9.3,1c2.2,0.7,3.8,1.7,4.9,2.9c1.1,1.3,1.8,2.9,2.2,4.7
		c0.4,1.8,0.6,4.7,0.6,8.5v5.3c0,3.9-0.4,6.8-1.1,8.5s-2.1,3.2-4.1,4.1c-2,1-4.6,1.4-7.9,1.4h-4v24.6h-14.8L484.5,431.2L484.5,431.2
		z M499.3,441.7v15.6c0.4,0,0.8,0,1.1,0c1.4,0,2.3-0.4,2.8-1.1c0.5-0.7,0.8-2.2,0.8-4.5v-5c0-2.1-0.3-3.5-0.9-4.1
		C502.5,442,501.2,441.7,499.3,441.7L499.3,441.7z M549.7,443.4h-10.9v49H524v-61.2h25.8L549.7,443.4L549.7,443.4z M590.8,467
		c0,6.2-0.1,10.5-0.4,13.1c-0.3,2.6-1.1,4.9-2.5,7s-3.3,3.7-5.8,4.9c-2.4,1.1-5.3,1.7-8.5,1.7c-3.1,0-5.8-0.5-8.2-1.6
		c-2.4-1.1-4.4-2.7-5.9-4.8c-1.5-2.1-2.4-4.5-2.6-7c-0.3-2.5-0.4-6.9-0.4-13.2v-10.5c0-6.2,0.1-10.5,0.4-13.1c0.3-2.6,1.1-4.9,2.5-7
		c1.4-2.1,3.3-3.7,5.8-4.9c2.4-1.1,5.2-1.7,8.5-1.7c3.1,0,5.8,0.5,8.2,1.6s4.4,2.7,5.9,4.8c1.5,2.1,2.4,4.5,2.6,7
		c0.3,2.5,0.4,6.9,0.4,13.2L590.8,467L590.8,467z M576,447c0-2.9-0.1-4.7-0.4-5.5c-0.3-0.8-0.9-1.2-1.8-1.2c-0.8,0-1.4,0.3-1.8,1
		c-0.4,0.6-0.6,2.5-0.6,5.7v28.6c0,3.6,0.1,5.8,0.4,6.6c0.3,0.8,0.9,1.2,1.9,1.2c1,0,1.6-0.5,1.9-1.4c0.3-1,0.4-3.2,0.4-6.8V447z"/>
	<path fill="#FFFFFF" d="M109.8,360.1l288.7,68.7l-3.7,0l-285.1-61.2L109.8,360.1L109.8,360.1z M109.5,376.5l0,2.5l275.3,49.7l2.7,0
		L109.5,376.5L109.5,376.5z M109.5,382.8l0,1.3l266.3,44.6l2.8,0L109.5,382.8z"/>
	<linearGradient id="SVGID_1_" gradientUnits="userSpaceOnUse" x1="10.29" y1="511.0875" x2="565.915" y2="511.0875">
		<stop  offset="0" style="stop-color:#49A4FF"/>
		<stop  offset="1" style="stop-color:#55C8FF"/>
	</linearGradient>
	<polygon fill="url(#SVGID_1_)" points="10.3,524 23.9,501.1 565.9,498.2 	"/>
	<linearGradient id="SVGID_2_" gradientUnits="userSpaceOnUse" x1="39.655" y1="514.675" x2="595.28" y2="514.675">
		<stop  offset="0" style="stop-color:#FFCC02"/>
		<stop  offset="1" style="stop-color:#FF8602"/>
	</linearGradient>
	<polygon fill="url(#SVGID_2_)" points="595.3,501.8 581.7,524.7 39.7,527.6 	"/>
</g>
</svg>
